<svg xmlns="http://www.w3.org/2000/svg" viewBox="0 0 16 16"><defs><style>.cls-1{fill:#01ab47;}.cls-2{fill:#1f87fb;}.cls-3{fill:#fd2b25;}.cls-4{fill:#feb801;}.cls-5{fill:none;}</style></defs><g id="Layer_2" data-name="Layer 2"><g id="Layer_1-2" data-name="Layer 1"><g id="niGwis.tif"><path class="cls-1" d="M3.656,9.532a5.074,5.074,0,0,0,1.116,1.83,4.654,4.654,0,0,0,3.9,1.448,4.729,4.729,0,0,0,2.213-.738q1.283,1,2.563,1.994a.279.279,0,0,1-.03.038,7.363,7.363,0,0,1-3.908,1.8,2.768,2.768,0,0,0-.627.1H7.512a3.009,3.009,0,0,0-.6-.1,7.946,7.946,0,0,1-5.9-4.289.168.168,0,0,1-.009-.032Z"/><path class="cls-2" d="M13.444,14.066q-1.281-1-2.563-1.994a3.763,3.763,0,0,0,1.423-1.82c.055-.151.09-.309.139-.462.037-.118.016-.16-.123-.158-.794.007-1.589,0-2.383,0-.545,0-1.089,0-1.634,0-.125,0-.157-.033-.156-.157q.007-1.385,0-2.767c0-.128.036-.156.159-.156q3.617,0,7.233,0c.126,0,.168.032.184.162.035.28.072.561.09.843,0,.036-.014.08.033.1v1.1c-.057.033-.032.09-.035.135a8.666,8.666,0,0,1-.565,2.522A6.96,6.96,0,0,1,13.444,14.066Z"/><path class="cls-3" d="M1.011,4.423A6.993,6.993,0,0,1,2.275,2.578,7.809,7.809,0,0,1,7.189.064a7.669,7.669,0,0,1,6.185,1.9c.112.1.116.143.008.249-.688.678-1.369,1.364-2.05,2.049-.07.071-.112.109-.209.021a4.586,4.586,0,0,0-6.477.489,5.165,5.165,0,0,0-.988,1.7q-.775-.6-1.551-1.2Q1.561,4.841,1.011,4.423Z"/><path class="cls-4" d="M1.011,4.423q.549.418,1.1.839.777.6,1.551,1.205a4.911,4.911,0,0,0,0,3.065L1.009,11.583a7.429,7.429,0,0,1-.755-2.33A7.938,7.938,0,0,1,.945,4.536C.964,4.5.989,4.46,1.011,4.423Z"/></g><rect class="cls-5" width="16" height="16"/></g></g></svg>